<?xml version="1.0" encoding="UTF-8"?>
<svg id="Capa_1" data-name="Capa 1" xmlns="http://www.w3.org/2000/svg" viewBox="0 0 77.35 75.6">
  <defs>
    <style>
      .cls-1 {
        fill: #b0c4d3;
      }
    </style>
  </defs>
  <path class="cls-1" d="M69.18,0H8.17C3.66,0,0,3.66,0,8.17v59.26c0,4.51,3.66,8.17,8.17,8.17h61.01c4.51,0,8.17-3.66,8.17-8.17V8.17C77.34,3.66,73.69,0,69.18,0ZM59.82,35.44l-.23,1.5-.24,1.02c-.56,1.81-1.38,3.45-2.62,4.93-1.86,2.22-3.62,3.4-6.21,4.6l-2.97,1.38-6.24,2.89c-.03.11.17.22.18.29.04.18.28.46.4.63l.53.79,1.12,1.64c.25.36.35.79.45,1.23.26,1.11-.12,2.25-.88,3.06-.67.72-1.48,1.03-2.36,1.23-.42.1-.79.07-1.21,0-1.43-.24-2.54-.98-3.34-2.19l-6.21-9.41c-.14-.21-.26-.33-.26-.52l2.01-.91,2.57-1.15,2.14-.97,2.56-1.16,2.51-1.13,4.97-2.24c1.34-.6,2.6-1.31,3.55-2.43.65-.75,1.16-1.52,1.51-2.42l.23-.77c.13-.44.19-.88.26-1.37.16-1.09-.17-2.67-.61-3.75-.67-1.63-1.77-3.02-3.19-4.11-2.62-2.03-6.54-2.88-9.72-2.04l-1.02.27-3.41,1.41-.62.27-3.91,1.63c-.41.17-.77.35-1.19.51l-.4.16c-.23.09-.51.15-.76.3l-.35.2c-.19.11-.4.12-.59.2l-.69.31c-.68.3-1.19.35-1.82.99-.39.4-.58.83-.7,1.35-.26,1.16.6,2.46,1.81,2.97,1.09.46,1.92.45,3-.01l4.1-1.77,1.25-.55,5.42-2.33.7-.16c1.23-.28,3.29.32,4.31,1.94.86,1.38.58,3.14-.69,4.11-.51.39-1.03.58-1.61.83l-9.7,4.27c-2.18.96-4.28,1.3-6.58,1.05-2.83-.3-5.69-1.67-7.6-3.81-.99-1.1-1.71-2.29-2.12-3.7l-.31-1.39c-.17-.75-.06-1.41.04-2.16.31-2.39,1.49-4.29,3.34-5.83l1.39-.93,1.6-.77,2.61-1.07,1.35-.55,7.13-2.9.65-.26.58-.24,2-.61c.65-.2,1.41-.28,2.15-.4.44-.07.89-.05,1.31-.14,1.02-.22,1.78-.07,2.64.03l1.77.19,1.58.3c3.67.83,7,2.62,9.71,5.23l.5.5.76.87.98,1.32.44.65c.43.63.8,1.26,1.06,1.98l.8,2.25c.09.25.11.53.15.78l.22,1.34c.14.87.14,1.84,0,2.72Z"/>
</svg>