<?xml version="1.0" encoding="UTF-8"?>
<svg id="Capa_1" data-name="Capa 1" xmlns="http://www.w3.org/2000/svg" viewBox="0 0 77.35 75.6">
  <defs>
    <style>
      .cls-1 {
        fill: #b0c4d3;
      }
    </style>
  </defs>
  <path class="cls-1" d="M69.18,0H8.17C3.66,0,0,3.66,0,8.17v59.26c0,4.51,3.66,8.17,8.17,8.17h61.01c4.51,0,8.17-3.66,8.17-8.17V8.17c0-4.51-3.66-8.17-8.17-8.17ZM41.77,56.55l-2.69-9.39h-11.63l-2.71,9.39h-6.28l11.3-34.67h7.21l11.3,34.67h-6.51ZM58.14,56.55h-6.11v-26.04h6.11v26.04ZM55.11,25.96c-2.16,0-3.77-1.44-3.77-3.46s1.61-3.46,3.77-3.46,3.77,1.4,3.77,3.46-1.61,3.46-3.77,3.46ZM36.49,38.11l1.21,4.23h-8.85l1.22-4.23c1.1-3.67,2.12-7.59,3.07-11.43h.21c1.02,3.81,2.04,7.76,3.14,11.43Z"/>
</svg>