<?xml version="1.0" encoding="UTF-8"?>
<svg id="Capa_1" data-name="Capa 1" xmlns="http://www.w3.org/2000/svg" viewBox="0 0 77.35 75.6">
  <defs>
    <style>
      .cls-1 {
        fill: #b0c4d3;
      }
    </style>
  </defs>
  <path class="cls-1" d="M33.41,30.89c0,4.27-2.46,6.33-7.65,6.33h-4.48v-12.11h4.27c5.16,0,7.86,1.47,7.86,5.78ZM77.5,8.18v59.38c0,4.52-3.66,8.18-8.18,8.18H8.18C3.66,75.75,0,72.08,0,67.56V8.18C0,3.66,3.66,0,8.18,0h61.13C73.83,0,77.5,3.66,77.5,8.18ZM39.48,30.89c0-8.03-5.71-10.71-13.43-10.71h-10.94v34.73h6.16v-12.77h4.99c7.48,0,13.21-3.52,13.21-11.26ZM62.38,47.46c0-4.86-3.95-6.56-7.48-7.88-2.83-1.04-5.46-1.83-5.46-3.89,0-1.64,1.24-2.89,3.87-2.89,2.05,0,3.89.93,5.71,2.27l2.8-3.76c-2.12-1.65-5.04-3.12-8.67-3.12-5.84,0-9.5,3.27-9.5,7.8s3.91,6.32,7.33,7.61c2.78,1.06,5.61,2.04,5.61,4.23,0,1.78-1.34,3.12-4.18,3.12-2.64,0-4.89-1.1-7.2-2.91l-2.85,3.89c2.55,2.1,6.31,3.63,9.88,3.63,6.59,0,10.13-3.61,10.13-8.09Z"/>
</svg>