<?xml version="1.0" encoding="UTF-8"?>
<svg id="Capa_1" data-name="Capa 1" xmlns="http://www.w3.org/2000/svg" viewBox="0 0 77.35 75.6">
  <defs>
    <style>
      .cls-1 {
        fill: #b0c4d3;
      }
    </style>
  </defs>
  <path class="cls-1" d="M43.75,31.97l3.82,11.72c-1.3-.28-2.17.25-3.18,1.24l-1.05,2.08c-.99-1.51-2.91-3.4-4.71-3.4-.32,0-.63.06-.94.19-1.74.74-2.6,1.77-3.72,3.2-.63-1.93-2.04-3.71-4.21-3.31l5.27-16.17h7.26s1.47,4.45,1.47,4.45ZM38.82,16.82l-.17-.17s-.08.1-.1.12c-.01.02-.03.04-.04.05l-2.92,8.97,6.16.02-2.92-8.99ZM77.3,8.2v59.19c0,4.51-3.65,8.16-8.16,8.16H8.21C3.7,75.55.05,71.9.05,67.4V8.2C.05,3.7,3.7.05,8.21.05h60.94c4.51,0,8.16,3.65,8.16,8.16ZM51.31,60.02l-.02-9.72c0-.61-.12-1.27-.34-1.96l-10.43-32.03c-.26-.79-1.01-1.58-1.91-1.54-.76.03-1.54.68-1.81,1.51l-10.58,32.47c-.08.26-.16.75-.16.97v10.28s.04.04.04.04c.5.36.99.59,1.54.73l.16.04v-11.26s.91-2.69.91-2.69c.18-.54.73-1.08,1.16-1.31.64-.34,1.33.06,1.67.62.6.8.94,1.72,1.03,2.85l.15.51v13.04s.09.03.09.03c.49.16.96.25,1.44.25.04,0,.08,0,.12,0h.12s.07-12.27.07-12.27c.01-1.9,2.1-4.51,3.65-5.07.51-.18,1.09-.02,1.77.52h0c1.44,1.1,2.36,2.48,2.74,4.07l.03,12.63v.12h.12s.04,0,.06,0c.51,0,.95-.06,1.47-.17l.1-.02v-12.66s.21-.95.21-.95c.17-1.6.94-3.11,1.78-3.52.35-.17.7-.15,1.03.07.39.25.9.78,1.04,1.19l.81,2.45c.06.18.16.64.16.84l.02,10.61v.2l1.76-.86Z"/>
</svg>